<svg id='school_24' width='24' height='24' viewBox='0 0 24 24' xmlns='http://www.w3.org/2000/svg' xmlns:xlink='http://www.w3.org/1999/xlink'><rect width='24' height='24' stroke='none' fill='#000000' opacity='0'/>


<g transform="matrix(1 0 0 1 12 12)" >
<g style="" >
<g transform="matrix(1 0 0 1 0 0)" >
<path style="stroke: none; stroke-width: 2; stroke-dasharray: none; stroke-linecap: round; stroke-dashoffset: 0; stroke-linejoin: round; stroke-miterlimit: 4; fill: none; fill-rule: nonzero; opacity: 1;" transform=" translate(-12, -12)" d="M 0 0 L 24 0 L 24 24 L 0 24 z" stroke-linecap="round" />
</g>
<g transform="matrix(1 0 0 1 0 -2)" >
<path style="stroke: rgb(33,33,33); stroke-width: 2; stroke-dasharray: none; stroke-linecap: round; stroke-dashoffset: 0; stroke-linejoin: round; stroke-miterlimit: 4; fill: none; fill-rule: nonzero; opacity: 1;" transform=" translate(-12, -10)" d="M 22 9 L 12 5 L 2 9 L 12 13 L 22 9 L 22 15" stroke-linecap="round" />
</g>
<g transform="matrix(1 0 0 1 0 2.8)" >
<path style="stroke: rgb(33,33,33); stroke-width: 2; stroke-dasharray: none; stroke-linecap: round; stroke-dashoffset: 0; stroke-linejoin: round; stroke-miterlimit: 4; fill: none; fill-rule: nonzero; opacity: 1;" transform=" translate(-12, -14.8)" d="M 6 10.6 L 6 16 C 6 17.65685424949238 8.686291501015239 19 12 19 C 15.313708498984761 19 18 17.65685424949238 18 16 L 18 10.6" stroke-linecap="round" />
</g>
</g>
</g>
</svg>
